<svg xmlns:dc="http://purl.org/dc/elements/1.1/" xmlns:cc="http://creativecommons.org/ns#" xmlns:rdf="http://www.w3.org/1999/02/22-rdf-syntax-ns#" xmlns:svg="http://www.w3.org/2000/svg" xmlns="http://www.w3.org/2000/svg" xmlns:xlink="http://www.w3.org/1999/xlink" xmlns:sodipodi="http://sodipodi.sourceforge.net/DTD/sodipodi-0.dtd" xmlns:inkscape="http://www.inkscape.org/namespaces/inkscape" version="1.0" width="1927" height="1770" id="svg2" sodipodi:version="0.32" inkscape:version="0.48.3.1 r9886" sodipodi:docname="geometromap.svg" inkscape:output_extension="org.inkscape.output.svg.inkscape" style="display:inline" inkscape:export-filename="/home/nojhan/code/geometromap/geometromap_solarized_sombre.png" inkscape:export-xdpi="186.82001" inkscape:export-ydpi="186.82001">
    <title id="title4078">Geographically accurate Paris metro map</title>
    <metadata id="metadata686">
        <rdf:RDF>
            <cc:Work rdf:about="">
                <dc:format>image/svg+xml</dc:format>
                <dc:type rdf:resource="http://purl.org/dc/dcmitype/StillImage"/>
                <dc:title>Geographically accurate Paris metro map</dc:title>
                <dc:source>http://commons.wikimedia.org/wiki/File:Paris_Metro_map.svg</dc:source>
                <dc:contributor>
                    <cc:Agent>
                        <dc:title>Poulpy
Gonioul
Otourly
Greenski
claire.laudy@yahoo.fr
simon.fossier@gmail.com
Ethan Schoonover</dc:title>
                    </cc:Agent>
                </dc:contributor>
                <dc:creator>
                    <cc:Agent>
                        <dc:title>nojhan, Metropolitan, Pmx</dc:title>
                    </cc:Agent>
                </dc:creator>
                <dc:date>2011-10-12</dc:date>
                <cc:license rdf:resource="http://creativecommons.org/licenses/by-sa/3.0/"/>
                <dc:publisher>
                    <cc:Agent>
                        <dc:title>Wikimedia Foundation</dc:title>
                    </cc:Agent>
                </dc:publisher>
                <dc:relation>http://commons.wikimedia.org/wiki/File:Paris_Metro_map.gif</dc:relation>
                <dc:language>fr-FR</dc:language>
                <dc:rights>
                    <cc:Agent>
                        <dc:title>nojhan</dc:title>
                    </cc:Agent>
                </dc:rights>
                <dc:identifier>http://commons.wikimedia.org/wiki/File:Paris_Metro_map_complete.svg</dc:identifier>
                <dc:subject>
                    <rdf:Bag>
                        <rdf:li>paris</rdf:li>
                        <rdf:li>metro</rdf:li>
                        <rdf:li>métro</rdf:li>
                        <rdf:li>métropolitain</rdf:li>
                        <rdf:li>metropolitan</rdf:li>
                        <rdf:li>subway</rdf:li>
                        <rdf:li>map</rdf:li>
                        <rdf:li>plan</rdf:li>
                        <rdf:li>station</rdf:li>
                        <rdf:li>RER</rdf:li>
                        <rdf:li>correspondance</rdf:li>
                    </rdf:Bag>
                </dc:subject>
                <dc:description>Cette carte a plusieurs caractéristiques qui vont plus loin que le simple esthétisme :
* chaque station est placée à sa position géographique réelle,
* la palette de couleurs a été conçue avec soin pour être la plus agréable à lire par un être humain, sur fond clair comme sur fond sombre (http://ethanschoonover.com/solarized),
* elle est utilisable par les daltoniens,
* elle est dans un format vectoriel ouvert, dédié au web,
* aucun élément graphique ne pose de problème de droit d'auteur.

Les lignes de trams sont positionnées grâce aux données géographiques du projet Open Street Map.</dc:description>
            </cc:Work>
            <cc:License rdf:about="http://creativecommons.org/licenses/by-sa/3.0/">
                <cc:permits rdf:resource="http://creativecommons.org/ns#Reproduction"/>
                <cc:permits rdf:resource="http://creativecommons.org/ns#Distribution"/>
                <cc:requires rdf:resource="http://creativecommons.org/ns#Notice"/>
                <cc:requires rdf:resource="http://creativecommons.org/ns#Attribution"/>
                <cc:permits rdf:resource="http://creativecommons.org/ns#DerivativeWorks"/>
                <cc:requires rdf:resource="http://creativecommons.org/ns#ShareAlike"/>
            </cc:License>
        </rdf:RDF>
    </metadata>
    <sodipodi:namedview inkscape:window-height="1126" inkscape:window-width="1914" inkscape:pageshadow="2" inkscape:pageopacity="1" guidetolerance="10.0" gridtolerance="10.0" objecttolerance="10.0" borderopacity="1.0" bordercolor="#666666" pagecolor="#fdf6e3" id="base" showgrid="false" inkscape:zoom="1.1050847" inkscape:cx="1426.3767" inkscape:cy="1250.9124" inkscape:window-x="1280" inkscape:window-y="44" inkscape:current-layer="layer31" showguides="true" inkscape:guide-bbox="true" inkscape:window-maximized="0" inkscape:snap-grids="false" inkscape:snap-to-guides="true" inkscape:object-paths="false" inkscape:snap-bbox="true" borderlayer="true"/>
    <defs id="defs3">
        <inkscape:path-effect effect="spiro" id="path-effect7625" is_visible="true"/>
        <inkscape:path-effect effect="spiro" id="path-effect6887" is_visible="true"/>
        <inkscape:path-effect effect="spiro" id="path-effect7582" is_visible="true"/>
        <inkscape:path-effect effect="spiro" id="path-effect6436" is_visible="false"/>
        <inkscape:path-effect effect="spiro" id="path-effect5690" is_visible="true"/>
        <inkscape:path-effect effect="spiro" id="path-effect6701" is_visible="true"/>
        <marker inkscape:stockid="Arrow1Sstart" orient="auto" refY="0.0" refX="0.0" id="marker8620" style="overflow:visible">
            <path id="path8375" d="M 0.0,0.0 L 5.0,-5.0 L -12.5,0.0 L 5.0,5.0 L 0.0,0.0 z " style="fill-rule:evenodd;stroke:#000000;stroke-width:1.0pt;marker-start:none" transform="scale(0.2) translate(6,0)"/>
        </marker>
        <marker inkscape:stockid="Arrow1Lend" orient="auto" refY="0.0" refX="0.0" id="Arrow1Lend" style="overflow:visible;">
            <path id="path5972" d="M 0.0,0.0 L 5.0,-5.0 L -12.5,0.0 L 5.0,5.0 L 0.0,0.0 z " style="fill-rule:evenodd;stroke:#000000;stroke-width:1.0pt;marker-start:none;" transform="scale(0.8) rotate(180) translate(12.5,0)"/>
        </marker>
        <inkscape:path-effect effect="spiro" id="path-effect5704" is_visible="false"/>
        <marker refX="0" refY="0" orient="auto" style="overflow:visible" id="Arrow1Sstart">
            <path d="M 0,0 L 5,-5 L -12.5,0 L 5,5 L 0,0 z" transform="matrix(0.2,0,0,0.2,1.2,0)" style="fill-rule:evenodd;stroke:#000000;stroke-width:1pt;marker-start:none" id="path4065"/>
        </marker>
        <marker refX="0" refY="0" orient="auto" style="overflow:visible" id="Arrow1Send">
            <path d="M 0,0 L 5,-5 L -12.5,0 L 5,5 L 0,0 z" transform="matrix(-0.2,0,0,-0.2,-1.2,0)" style="fill-rule:evenodd;stroke:#000000;stroke-width:1pt;marker-start:none" id="path4062"/>
        </marker>
        <marker refX="0" refY="0" orient="auto" style="overflow:visible" id="Arrow1Send-3">
            <path inkscape:connector-curvature="0" d="M 0,0 5,-5 -12.5,0 5,5 0,0 z" transform="matrix(-0.2,0,0,-0.2,-1.2,0)" style="fill-rule:evenodd;stroke:#000000;stroke-width:1pt;marker-start:none" id="path4062-9"/>
        </marker>
        <marker refX="0" refY="0" orient="auto" style="overflow:visible" id="Arrow1Sstart-4">
            <path inkscape:connector-curvature="0" d="M 0,0 5,-5 -12.5,0 5,5 0,0 z" transform="matrix(0.2,0,0,0.2,1.2,0)" style="fill-rule:evenodd;stroke:#000000;stroke-width:1pt;marker-start:none" id="path4065-8"/>
        </marker>
        <marker refX="0" refY="0" orient="auto" style="overflow:visible" id="marker6667">
            <path inkscape:connector-curvature="0" d="M 0,0 5,-5 -12.5,0 5,5 0,0 z" transform="matrix(-0.2,0,0,-0.2,-1.2,0)" style="fill-rule:evenodd;stroke:#000000;stroke-width:1pt;marker-start:none" id="path6669-1"/>
        </marker>
        <marker refX="0" refY="0" orient="auto" style="overflow:visible" id="marker6671">
            <path inkscape:connector-curvature="0" d="M 0,0 5,-5 -12.5,0 5,5 0,0 z" transform="matrix(0.2,0,0,0.2,1.2,0)" style="fill-rule:evenodd;stroke:#000000;stroke-width:1pt;marker-start:none" id="path6673"/>
        </marker>
        <marker refX="0" refY="0" orient="auto" style="overflow:visible" id="Arrow1Sstart-6">
            <path inkscape:connector-curvature="0" d="M 0,0 5,-5 -12.5,0 5,5 0,0 z" transform="matrix(0.2,0,0,0.2,1.2,0)" style="fill-rule:evenodd;stroke:#000000;stroke-width:1pt;marker-start:none" id="path4065-1"/>
        </marker>
        <marker refX="0" refY="0" orient="auto" style="overflow:visible" id="Arrow1Sstart-1">
            <path inkscape:connector-curvature="0" d="M 0,0 5,-5 -12.5,0 5,5 0,0 z" transform="matrix(0.2,0,0,0.2,1.2,0)" style="fill-rule:evenodd;stroke:#000000;stroke-width:1pt;marker-start:none" id="path4065-5"/>
        </marker>
        <inkscape:path-effect effect="spiro" id="path-effect7582-4" is_visible="true"/>
    </defs>
    <g inkscape:groupmode="layer" id="layer31" inkscape:label="Fond" style="display:inline">
        <rect style="color:#000000;fill:#feecce;fill-opacity:1;fill-rule:nonzero;stroke:none;stroke-width:3.20000005;marker:none;visibility:visible;display:inline;overflow:visible;enable-background:accumulate" id="rect4903" width="1947.3619" height="1791.7178" x="-7.239264" y="-12.668712" rx="8.1518555" ry="8.1518555"/>
        <path style="fill:#feecce;stroke:none" d="m 440.75646,223.03954 c 11.92017,-23.77894 42.16251,-34.12619 67.25824,-42.9428 24.78157,-8.70623 54.92665,-20.34833 78.34465,-8.45203 14.28555,7.25704 17.16167,27.15656 24.02137,41.6371 12.33415,26.03689 15.3196,56.40207 30.57111,80.8447 17.58604,28.18403 50.26137,44.69975 68.23852,72.63593 18.00195,27.97473 19.88639,64.35258 37.88735,92.32795 8.74492,13.59052 19.04853,27.52178 33.19369,35.3378 10.90154,6.02373 25.24157,12.11175 36.67193,7.16445 8.02002,-3.47124 11.8451,-13.71721 13.94626,-22.19986 2.46063,-9.93384 -0.30038,-20.58022 -2.30904,-30.61522 -3.16477,-15.81074 -12.27571,-30.06467 -15.20881,-45.92002 -1.02937,-5.56445 -3.42525,-11.9556 -0.7809,-16.9586 8.95547,-16.94336 35.68471,-16.32832 48.94462,-30.16496 9.80977,-10.23643 11.75298,-26.17303 20.75534,-37.12628 30.58961,-37.21865 83.09363,-53.73194 110.10601,-93.62284 14.8636,-21.95001 17.9483,-49.92421 25.3432,-75.38094 8.0542,-27.72651 1.4564,-62.57093 20.6807,-84.112895 16.5129,-18.503705 45.0635,-27.985651 69.7708,-25.83813 20.3249,1.766612 44.0708,12.431386 52.8675,30.839058 14.4686,30.276457 -6.2585,67.165657 -15.1562,99.520487 -7.4641,27.14168 -13.1878,57.09612 -31.7628,78.24686 -24.2201,27.57875 -64.8198,34.60007 -95.8246,54.24453 -20.98299,13.29468 -50.52835,20.38403 -60.89195,42.959 -6.92578,15.08638 -5.1287,36.23634 4.75574,49.57287 14.94185,20.16023 44.70861,25.53726 69.60511,28.67708 33.237,4.19168 69.4563,0.76749 99.519,-14.01432 29.97,-14.73621 47.3651,-47.10585 71.6437,-70.03844 18.4706,-17.44657 33.6942,-39.78687 56.3025,-51.3804 21.199,-10.87084 46.5681,-19.41559 69.9317,-14.75544 18.549,3.69982 41.9413,13.83369 46.7774,32.11934 9.3836,35.47986 -29.9491,67.13835 -48.0856,99.04351 -22.3503,39.31801 -69.8998,68.3702 -74.5616,113.35587 -1.3631,13.15336 2.8903,30.65568 14.5414,36.91027 35.9669,19.30783 81.2677,-11.98579 119.7704,-25.54848 38.3023,-13.49208 76.2561,-30.54151 108.7716,-54.8694 26.3324,-19.70179 37.6731,-58.09079 67.4895,-71.96658 25.9341,-12.06904 63.3568,-22.47289 85.6912,-4.60076 14.4626,11.57305 18.059,38.49221 9.2602,54.792 -11.8379,21.92978 -49.8188,13.49984 -68.4647,30.03411 -21.5185,19.08156 -23.091,54.40809 -43.8635,74.29917 -21.9827,21.0499 -62.4966,18.47614 -80.5653,42.9682 -17.916,24.28512 -17.7756,58.72849 -17.1316,88.90025 0.6969,32.6487 -0.9833,72.75816 22.6259,95.31988 21.0496,20.11567 57.8781,8.09097 85.8131,16.29813 16.0553,4.71694 36.7237,5.25286 46.5489,18.79858 7.7266,10.6525 6.4402,26.77488 2.6855,39.38752 -5.2274,17.55968 -17.8007,33.81609 -33.1213,43.86337 -29.7756,19.52688 -71.4177,10.34427 -103.8398,25.06478 -9.9139,4.5012 -20.8375,9.66544 -26.6686,18.86027 -5.0309,7.93297 -9.0095,19.29874 -4.9091,27.75029 6.5948,13.59293 25.3149,17.64224 39.9426,21.42242 17.323,4.47678 35.8068,-0.26573 53.6715,0.72461 22.0615,1.223 48.1158,-6.57581 65.973,6.43677 8.2463,6.0091 10.837,17.9734 12.1622,28.0904 9.7177,74.1861 -42.0733,147.72 -33.1213,222.0023 3.0587,25.3809 15.119,49.5351 29.014,70.9938 15.7519,24.3264 47.6703,36.7042 59.9781,62.9418 20.3178,43.3133 -1.987,98.4797 16.6025,142.5624 14.8671,35.2555 60.0365,52.8768 72.3729,89.0955 6.6676,19.5757 13.2173,47.5836 -1.5902,62.0198 -29.5724,28.8309 -87.8521,20.183 -123.9022,0.03 -32.4365,-18.1329 -44.306,-60.5837 -58.3711,-94.9799 -11.1232,-27.2017 -15.5441,-56.8428 -19.6938,-85.9364 -3.6296,-25.4474 3.1438,-52.4351 -4.4759,-76.9847 -4.4447,-14.32 -12.4266,-28.1413 -23.2744,-38.4923 -14.4897,-13.8261 -35.4777,-18.6193 -52.8151,-28.6455 -39.4289,-22.8018 -75.9984,-50.5302 -116.3722,-71.6136 -34.8701,-18.2094 -68.9315,-49.5779 -108.1938,-47.1342 -20.8205,1.2959 -48.3329,11.7934 -53.8321,31.9163 -4.5765,16.7465 20.7521,28.8373 25.0648,45.6537 2.7426,10.6944 1.7183,22.2154 0,33.1213 -11.1767,70.9354 -19.4423,150.5288 -66.2427,204.9941 -10.0013,11.6394 -26.2423,17.0631 -41.1778,20.5889 -30.4928,7.1984 -64.5971,10.8406 -93.9929,0 -15.0919,-5.5656 -28.34906,-17.5844 -36.70207,-31.331 -21.9506,-36.1242 -25.15041,-81.4078 -28.64546,-123.5335 -2.26262,-27.2713 4.68659,-54.574 5.11138,-81.9357 0.34925,-22.496 4.32827,-45.9052 -2.10922,-67.4633 -2.30144,-7.7072 -5.60564,-16.6009 -12.59426,-20.5829 -17.97448,-10.2415 -48.00338,-16.0579 -62.0561,-0.876 -3.05479,3.3003 2.82919,9.2317 1.23041,13.4349 -10.22172,26.8732 -42.14285,39.1252 -62.96266,58.9542 -19.25349,18.3373 -33.02237,44.6383 -57.29093,55.5006 -22.66437,10.1443 -49.60543,7.9783 -74.29918,5.371 -38.31519,-4.0455 -75.46584,-17.3378 -111.00118,-32.2261 -20.82354,-8.7245 -41.7342,-18.671 -59.08127,-33.1214 -14.00208,-11.664 -28.72578,-24.9312 -34.91166,-42.073 -5.26685,-14.5951 -1.67679,-31.1235 0,-46.5489 2.44301,-22.4742 12.54122,-43.7205 14.57222,-66.2356 1.08455,-12.023 -5.95829,-25.0434 -1.32632,-36.1913 2.41005,-5.8003 13.75019,-6.5163 13.83143,-12.7969 0.0752,-5.8112 -6.87542,-10.6565 -12.4872,-12.1676 -9.50118,-2.5585 -18.79175,6.9258 -28.62758,7.1989 -5.86884,0.163 -11.435,-3.725 -17.29353,-3.341 -21.65616,1.4195 -42.3209,10.9524 -61.76678,20.5889 -21.3572,10.5836 -38.99121,27.4557 -59.08128,40.2827 -18.15854,11.5938 -34.82802,27.0556 -55.50059,33.1213 -17.47487,5.1275 -37.38229,7.7085 -54.60542,1.7903 -17.63208,-6.0588 -31.25847,-21.2988 -42.96819,-35.8068 -18.19031,-22.5373 -32.92365,-48.9729 -40.28269,-76.9847 -4.77894,-18.1908 -6.97719,-38.317 -1.79034,-56.3957 9.01512,-31.42213 34.00478,-56.07888 54.60542,-81.46063 10.77102,-13.27082 27.51218,-21.75784 35.80683,-36.70201 15.20768,-27.39914 10.1051,-62.47461 22.37927,-91.30742 4.15032,-9.74937 11.54477,-17.77626 17.00824,-26.85512 8.34522,-13.86758 15.86759,-28.21644 24.07891,-42.16373 9.57239,-16.25913 20.42446,-31.77558 29.35921,-48.39365 8.74064,-16.25704 17.19908,-32.77488 23.65156,-50.0681 5.90232,-15.81874 20.53897,-33.36091 13.65353,-48.77716 -8.15235,-18.25283 -36.4214,-16.6199 -53.79752,-26.50407 -3.49589,-1.98859 -8.19509,-3.04398 -10.11484,-6.57815 -2.1539,-3.96522 -1.39684,-9.24201 -0.014,-13.53735 3.36997,-10.46774 11.45187,-19.04545 19.27469,-26.77421 22.40296,-22.13359 55.23846,-31.83068 77.33795,-54.26727 20.22279,-20.53126 37.95353,-44.72716 48.58188,-71.51394 10.26532,-25.87181 12.00853,-54.64363 13.19837,-82.45211 1.41945,-33.17489 -22.16636,-69.66461 -7.28587,-99.34894 z" id="path8228" inkscape:connector-curvature="0" sodipodi:nodetypes="ssssssssssssssssssssssssssssssssssssssssssssssssssssssssssssssssssssssssssssssssssssssssssssssssssssssssssssssssssssss"/>
        
    </g>
    <g inkscape:groupmode="layer" id="layer30" inkscape:label="Paris intra-muros" style="display:inline">
        <path inkscape:connector-curvature="0" style="fill:none;stroke:#073642;stroke-width:2;stroke-linecap:round;stroke-miterlimit:4;stroke-opacity:1;stroke-dasharray:2, 8;stroke-dashoffset:0;display:inline" d="m 1349.638,1104.6615 -44.0045,40.9273 -12.3089,-0.3077 -21.5407,13.2321 -25.5411,4.3081 -22.7716,19.0789 -18.7712,9.2317 -28.6183,15.694 -20.6175,15.3862 -86.4704,43.0813 -12.9244,3.0772 -16.3094,0.6155 -24.0025,-3.385 -13.5398,-20.9252 -4.00045,-1.5386 -14.77074,14.463 -15.38619,8.924 -15.07848,-1.8463 0,8.3085 -4.00041,-0.6154 -4.92358,-4.9236 -9.23172,-3.0773 -54.46714,-1.8463 -0.92317,-15.0785 -72.31512,-25.2333 -85.54726,-28.3106 -74.46918,-25.5411 -24.92565,-12.309 -27.07969,-20.9252 -34.46508,-18.7712 -7.07765,14.4631 -29.54151,29.5415 -29.84922,-0.3078 0,-37.5423 14.77076,-10.7703 -14.1553,-12.6167 -31.08012,7.0776 -41.23502,-7.0776 -5.2313,-12.6167 -17.54026,-23.387 -0.30772,-30.7724 -2.15408,-8.924 7.69311,-15.3862 0,-7.6931 20.70407,-25.58919 11.09769,-7.108 19.62475,-32.04075 14.73684,-33.83001 14.49516,-46.2924 -3.85863,-12.72015 68.75981,-105.68133 14.18115,-9.63223 3.35284,-23.13638 6.15448,-33.84964 4.30813,-12.92439 15.69393,-18.77117 45.2354,-34.7728 18.77117,-1.84634 73.54601,-59.08299 66.77609,-30.46467 11.07807,-7.07765 7.38538,-5.53904 78.4696,-2.15406 67.08381,-1.2309 34.46508,-2.76952 82.16234,-3.07724 52.9285,-0.61545 61.8525,-0.30772 26.1565,8.61628 7.0777,0.92317 7.6931,4.00042 20.0021,18.77115 14.1553,34.77279 4.9235,24.31019 1.2309,22.46385 2.1541,11.07806 0.6154,27.69517 10.7704,19.07888 6.4622,7.69309 16.9248,8.00082 25.5411,8.61628 19.0789,38.46549 6.1545,22.77157 2.4618,69.54561 0.9231,45.54314 6.1545,29.84922 0.6154,23.38701 7.6932,51.69762 -0.9232,24.31019 -11.3858,64.00662 -8.924,39.6964 z" id="path9491" sodipodi:nodetypes="cccccccccccccccccccccccccccccccccccccccccccccccccccccccccccccccccccccccccccccccccccccccccccc"/>
    </g>
    <g style="display:inline" inkscape:label="Seine" id="g6305" inkscape:groupmode="layer">
        <path inkscape:connector-curvature="0" d="m 1392.7176,1764.5921 c -1.5304,-2.4224 -4.9054,-6.114 -7.5,-8.2036 -15.8858,-12.7936 -29.4267,-27.2074 -31.8941,-33.9499 -0.5914,-1.6162 -2.5682,-9.9136 -4.3929,-18.4386 -7.4988,-35.034 -4.19,-65.8193 8.7497,-81.4085 6.5749,-7.9212 11.0254,-15.1157 16.7586,-27.0915 10.0645,-21.0231 30.1113,-70.1453 35.5308,-87.0639 9.2922,-29.0083 -2.0573,-53.6326 -47.0236,-102.0242 -19.4165,-20.8956 -24.4945,-27.3034 -28.8553,-36.4119 -3.3457,-6.988 -3.6135,-8.2587 -3.9235,-18.6144 -0.2724,-9.099 0.1809,-13.7228 2.5,-25.5 2.5061,-12.7271 2.8327,-16.5761 2.8327,-33.3856 0,-16.9079 -0.2473,-19.7865 -2.2463,-26.1432 -2.5908,-8.2383 -6.1518,-12.0528 -13.8986,-14.888 -17.5629,-6.4277 -42.6246,-19.1993 -54.8551,-27.9546 -16.6403,-11.9121 -32.9444,-27.9039 -52.1252,-51.1271 -24.3591,-29.4927 -41.2767,-50.6785 -59.4008,-74.3871 -42.4741,-55.5614 -38.2969,-50.5786 -82.7141,-98.66749 -29.5899,-32.03592 -33.0476,-35.44576 -38.8301,-38.29246 -5.4771,-2.69636 -20.7594,-8.88405 -33.829,-13.69709 -4.33092,-1.59491 -22.34426,-10.76365 -30.1008,-15.32122 -2.75,-1.61584 -5.56942,-2.95676 -6.26538,-2.97982 -0.69597,-0.0231 -3.62097,-1.59107 -6.5,-3.48449 -2.87904,-1.89341 -6.41761,-3.72851 -7.86349,-4.078 C 944.23093,920.84125 934,910.93142 934,909.01227 c 0,-0.56413 -4.3875,-5.48499 -9.75,-10.93524 l -9.75,-9.90955 -10.5,-3.12541 c -19.08117,-5.67965 -18.66621,-5.51726 -41,-16.04561 -9.625,-4.53731 -19.075,-8.68742 -21,-9.22245 -1.925,-0.53503 -4.175,-1.55453 -5,-2.26554 C 833.70547,854.66912 810.8439,844 808.05433,844 c -1.68416,0 -3.78174,-0.86441 -4.83129,-1.99097 -3.02938,-3.25166 -10.90421,-4.00933 -41.60953,-4.00347 -41.94678,0.008 -70.32088,1.47693 -79.11351,4.09567 -16.37155,4.876 -29.12282,14.07686 -41.23308,29.75234 -3.67395,4.75553 -8.94948,11.14709 -11.72341,14.20346 -5.98243,6.59155 -7.09133,8.6672 -8.51743,15.94297 -1.24326,6.34296 -3.04542,8.81798 -20.15497,27.68 -11.79732,13.00568 -21.73466,22.79347 -36.84646,36.29192 -13.08441,11.68752 -28.38953,32.92379 -51.46051,71.40288 -13.48836,22.4966 -24.30739,39.3349 -36.83443,57.3275 -3.52382,5.0613 -10.29771,15.6513 -15.0531,23.5332 C 451.21492,1133.9182 450,1137.6397 450,1150.9401 c 0,10.1535 -2.82277,15.8346 -12.91219,25.9871 -21.15749,21.2899 -51.54654,38.6577 -81.58781,46.6287 -14.87245,3.9461 -25.33562,3.8241 -36.5,-0.4256 -4.675,-1.7796 -11.65,-4.7319 -15.5,-6.5607 -3.85,-1.8288 -9.475,-4.4905 -12.5,-5.9148 -3.025,-1.4243 -9.325,-5.9105 -14,-9.9693 -15.37039,-13.3442 -22.58449,-24.6389 -29.68342,-46.4735 -3.92853,-12.0832 -4.54422,-15.2172 -5.18329,-26.3836 l -0.72522,-12.6715 -6.72878,-11.01 c -14.51494,-23.75 -16.0496,-32.1294 -10.64451,-58.1194 1.19787,-5.7599 3.49885,-14.7599 5.11329,-20 5.61928,-18.2389 9.54797,-52.11122 7.81403,-67.37101 -0.51273,-4.51233 -2.02591,-11.85821 -3.36263,-16.32416 -6.49491,-21.69936 -5.89474,-35.28289 2.86455,-64.83233 1.95643,-6.6 5.14606,-19.2 7.08807,-28 8.01565,-36.32196 10.06537,-40.65041 29.83346,-63 5.83767,-6.6 12.92539,-15.91264 15.7505,-20.69476 6.0295,-10.20625 15.18034,-20.92237 37.83778,-44.31004 9.28022,-9.57931 25.51446,-28.1563 37.02617,-42.36937 11.275,-13.92082 24.02104,-29.65651 28.32453,-34.96821 4.30349,-5.31169 10.59051,-14.33092 13.97116,-20.04272 4.01958,-6.79131 7.6918,-11.63605 10.61173,-14 13.88114,-11.23805 15.31032,-12.96138 34.51181,-41.6149 7.00282,-10.45 13.93578,-20.30183 15.40658,-21.89294 5.36737,-5.80644 44.34824,-29.72101 59.93667,-36.77085 3.70564,-1.67587 9.21252,-4.29403 12.23752,-5.81815 7.21505,-3.63522 22.8986,-8.70238 30.71844,-9.92473 7.08327,-1.10722 10.46669,-2.90071 29.28156,-15.52163 16.39655,-10.99872 20.43231,-14.22577 39.10484,-31.26875 18.62485,-16.99947 46.03805,-38.89225 55.25521,-44.12803 4.27951,-2.43096 12.14775,-5.50806 19.63995,-7.68076 16.87051,-4.89237 26.5831,-8.88856 59.72449,-24.57329 l 28.22449,-13.35773 4.27551,-7.88907 c 5.60833,-10.34834 8.67593,-13.86562 18.16851,-20.83178 7.94952,-5.8338 9.99643,-8.18829 37.72769,-43.39709 11.77385,-14.94859 21.52149,-28.84589 24.8822,-35.47479 1.54185,-3.04127 5.43447,-11.81627 8.65024,-19.5 L 900.5,216.5 900.31319,191.66234 c -0.17941,-23.85396 -1.26908,-38.93924 -3.38749,-46.89617 -1.25994,-4.73241 -11.41445,-18.38931 -19.6936,-26.4861 -7.8523,-7.67934 -17.24324,-12.53915 -36.20609,-18.736654 C 822.75502,93.57203 806.99744,89.553133 791.82194,86.994148 770.62903,83.420469 748.71777,76.986991 708.5,62.529563 688.15677,55.216606 686.89,54.99546 657.3537,53.600692 c -43.95205,-2.07551 -59.50641,0.02675 -85.07423,11.498254 -3.93104,1.763735 -6.24143,3.329083 -5.6964,3.859444 0.50431,0.490736 4.46678,2.295967 8.80548,4.011626 7.43072,2.938339 9.22988,3.20393 31,4.576215 12.7113,0.80126 27.83645,1.793646 33.61145,2.205302 L 650.5,80.5 l 0,3 0,3 -14,0 c -7.7,0 -19.7375,-0.359274 -26.75,-0.798387 -8.05472,-0.504375 -12.75,-0.443958 -12.75,0.164062 0,1.052783 19.63809,18.763565 32.75,29.535875 4.5375,3.72786 8.25,7.3428 8.25,8.0332 0,0.6904 -0.89465,2.06492 -1.98812,3.0545 -1.9239,1.74111 -2.11158,1.71366 -5.81049,-0.84969 -3.60645,-2.49927 -23.91207,-20.02204 -40.37895,-34.84508 -6.76502,-6.089692 -8.72907,-7.208714 -21.38579,-12.184593 L 554.5,73.130815 541,78.394255 c -7.425,2.894891 -17.55,6.742767 -22.5,8.550834 -9.59815,3.505877 -35.13773,14.721761 -37.29238,16.377201 -2.29826,1.76578 0.0435,2.43749 14.29238,4.09969 l 14,1.63316 10.5,-4.07991 c 18.06774,-7.020462 45.29891,-16.074504 46.71348,-15.531682 2.19096,0.840747 45.28428,40.951792 45.28545,42.151462 0.002,1.71169 -3.78026,4.70594 -5.21168,4.12623 -0.70799,-0.28673 -10.36448,-8.8913 -21.45888,-19.12128 C 574.23398,106.36998 564.53863,98 563.78315,98 c -2.59082,0 -18.16357,5.64126 -18.51938,6.70868 -0.1956,0.58682 7.54487,8.20493 17.20105,16.92913 13.20037,11.92632 18.36045,15.98625 20.79594,16.36219 2.94008,0.45382 3.23924,0.82324 3.23924,4 0,3.38984 -0.13078,3.50953 -4.155,3.80286 -4.76517,0.34733 -3.1949,1.51185 -27.36931,-20.2974 -8.53836,-7.703 -16.48997,-14.83022 -17.67023,-15.83826 -2.08674,-1.78225 -2.32054,-1.77103 -8.4757,0.40664 -3.48137,1.23169 -6.92221,2.77748 -7.64632,3.43508 -1.05774,0.96058 2.35001,4.59372 17.334,18.48048 10.25781,9.50667 18.90029,17.93562 19.20551,18.731 0.8026,2.09156 -3.11442,5.725 -5.00343,4.6412 -0.82596,-0.47388 -10.10046,-8.8491 -20.61001,-18.6116 C 518.18357,123.81396 512.33905,119 510.55964,119 c -1.34289,0 -2.65062,0.3382 -2.90609,0.75155 -0.25547,0.41335 -1.18675,8.40085 -2.06953,17.75 C 502.89007,166.03226 503.36387,164 499.40616,164 c -3.3453,0 -3.40562,-0.0759 -3.3761,-4.25 0.0165,-2.3375 0.87746,-12.8 1.91319,-23.25 1.43075,-14.43565 1.6037,-19.2734 0.71994,-20.13808 -0.63975,-0.62595 -8.62353,-1.944 -17.74172,-2.929 l -16.57852,-1.79091 -7.92148,4.79068 c -12.47508,7.54458 -20.55162,13.91621 -27.38264,21.60233 -8.068,9.07794 -19.61858,18.765 -46.95284,39.37765 -12.03929,9.07877 -26.5463,20.87013 -32.2378,26.20302 -10.58267,9.91586 -47.27314,39.6267 -72.34819,58.58539 -10.84749,8.20155 -19.40431,16.07174 -38,34.95077 -13.2,13.40113 -29.81464,31.11174 -36.92143,39.35692 -7.10679,8.24518 -17.45679,19.72272 -23,25.50564 -5.54321,5.78293 -14.74856,15.8213 -20.45632,22.30749 -18.06834,20.53249 -29.22662,29.23958 -52.12225,40.67233 -20.591202,10.28205 -25.8885,13.78062 -37,24.4364 -9.48431,9.09534 -11.709155,10.66826 -23,16.26054 -13.127735,6.50209 -26.266151,11.30632 -36.749937,13.4381 -6.7598674,1.37455 -7.8603832,0.96795 -8.4136042,-3.10848 C 1.5130983,473.63809 1.9866246,473.41397 14,470.26377 c 9.339786,-2.44913 16.367738,-5.17998 27.798559,-10.80168 13.318488,-6.55006 16.068179,-8.32879 21.244852,-13.74298 3.270462,-3.42051 5.948611,-6.89769 5.951442,-7.72707 0.0028,-0.82937 1.14112,-3.64187 2.529531,-6.25 1.696418,-3.18671 2.106403,-4.74145 1.25,-4.74025 C 72.073473,427.00277 65.2,430.87829 57.5,435.61406 28.394542,453.51493 11.860924,462 6.0855791,462 4.9078568,462 3.9759131,461.04017 3.5653485,459.40435 2.8093585,456.39224 4.3903374,454 7.1369591,454 c 2.9849139,0 24.7619869,-11.61363 43.5180879,-23.20803 9.435276,-5.83258 22.935276,-13.68433 30,-17.44833 C 92.111485,407.23978 94.63503,405.37989 104,396.13801 c 15.52662,-15.32255 21.73436,-19.05151 45.49665,-27.32967 16.66858,-5.8069 14.42792,-3.90667 43.32401,-36.74163 11.34223,-12.88832 30.53509,-33.39534 42.65079,-45.57117 17.65274,-17.74035 25.37597,-24.66841 38.88002,-34.87699 32.12518,-24.2855 58.31945,-45.6038 72.77068,-59.22467 4.74218,-4.4697 16.66718,-14.11585 26.5,-21.43588 26.04864,-19.39189 35.68895,-27.41321 48.99396,-40.76596 13.86124,-13.91097 21.90198,-19.46347 46.63085,-32.200735 19.57697,-10.083637 34.84942,-16.807288 52.25304,-23.00424 6.6,-2.350079 22.80841,-8.90537 36.01868,-14.567313 26.69078,-11.439708 37.28155,-14.880196 50.82211,-16.50994 C 613.37836,43.30349 624.475,41.432765 633,39.752646 c 13.97776,-2.754758 17.87581,-3.100066 39.69144,-3.516059 15.2949,-0.291653 27.98247,-0.02437 34.5,0.726805 22.1963,2.558212 59.80297,11.650426 89.73973,21.696492 27.06735,9.083164 75.81243,27.520209 86.06883,32.554158 9.18102,4.506144 11.63055,6.294704 19.5,14.238218 4.95,4.99659 14.15414,15.82639 20.45365,24.06622 10.44756,13.66554 27.78832,35.75997 34.9112,44.48152 2.8591,3.50079 17.28107,29.78406 31.22691,56.90935 7.93994,15.44354 12.69164,21.40901 20.03844,25.15707 4.1624,2.12352 4.9806,2.18479 18.3632,1.37509 27.085,-1.63875 31.2717,-0.77163 40.4135,8.3702 6.566,6.56597 8.3724,10.38775 25.6123,54.18829 16.4045,41.67791 54.2283,133.83888 74.4895,181.5 7.2481,17.05 16.9544,40.19419 21.5696,51.43154 7.9219,19.28907 9.4049,22.01613 11.992,22.05315 0.5887,0.008 10.7137,-6.57015 22.5,-14.61904 11.7864,-8.04889 23.4547,-15.55831 25.9297,-16.6876 3.4969,-1.59554 7.175,-2.14725 16.5,-2.47494 13.3888,-0.4705 27.3474,0.94889 62.5,6.35537 26.1195,4.0172 26.2652,4.01072 56.5426,-2.51482 10.2545,-2.21009 28.1649,-5.60765 39.8009,-7.55014 11.6361,-1.9425 24.3065,-4.45826 28.1565,-5.59059 3.85,-1.13232 9.25,-2.63984 12,-3.35003 5.6662,-1.46329 41.3914,-12.23745 55,-16.58711 4.95,-1.58215 30.15,-9.16223 56,-16.84464 25.85,-7.6824 76.475,-23.19214 112.5,-34.46609 36.025,-11.27395 85.7373,-26.63757 110.4719,-34.14139 48.028,-14.57043 56.4779,-17.94703 64.6411,-25.83076 2.4129,-2.33021 15.1166,-18.51162 28.2306,-35.95868 13.114,-17.44706 24.2515,-31.97401 24.75,-32.2821 0.4985,-0.30809 0.9064,0.11068 0.9064,0.93061 0,2.30924 -47.4956,64.98846 -52.986,69.92478 -7.1055,6.38846 -17.5468,11.45895 -33.4624,16.24998 -51.2343,15.42292 -85.929,26.09056 -143.5516,44.13801 -36.025,11.28306 -89.35,27.64335 -118.5,36.35619 -29.15,8.71284 -64.025,19.18111 -77.5,23.26283 -13.475,4.08172 -26.3,7.89323 -28.5,8.47002 -2.2,0.57679 -7.15,1.9808 -11,3.12001 -3.85,1.13922 -12.6477,2.9697 -19.5504,4.06773 -13.883,2.2084 -35.7983,6.36526 -57.9496,10.99177 -17.6737,3.69134 -24.3382,3.78037 -44.2063,0.59052 -41.1886,-6.61289 -66.9511,-8.51831 -76.693,-5.6723 -6.0818,1.77673 -53.1007,33.80248 -53.1007,36.16818 0,1.18174 -0.5831,1.63191 -1.75,1.35098 -1.1341,-0.27304 -8.9925,5.30333 -22.3275,15.84362 -11.3176,8.94572 -29.9926,23.53916 -41.5,32.42987 -23.224,17.9431 -26.9639,22.00352 -36.6907,39.83507 -7.2334,13.26053 -29.0561,51.36505 -32.7806,57.23796 -4.8957,7.71971 -4.4675,9.51477 8.2034,34.3887 6.1351,12.04357 10.8526,22.19949 10.4834,22.5687 -1.1029,1.10288 -1.906,-0.27359 -13.5057,-23.14822 -12.8298,-25.30036 -13.0023,-26.10794 -7.4979,-35.10597 5.2119,-8.51976 25.6718,-44.1655 32.1091,-55.94117 6.136,-11.2246 13.2319,-21.20901 18.9341,-26.6417 2.1023,-2.00293 13.0474,-10.73644 24.3224,-19.40778 59.7072,-45.91943 58.7752,-45.02701 55.375,-53.02859 -0.9166,-2.15706 -4.9314,-11.79693 -8.9217,-21.42193 -3.9903,-9.625 -12.5067,-29.875 -18.9253,-45 -14.475,-34.10896 -54.3863,-130.61504 -61.8276,-149.5 -32.5155,-82.51939 -32.3885,-82.23608 -39.9028,-88.99211 -7.8081,-7.02013 -12.4312,-8.07205 -29.2956,-6.66583 -7.7011,0.64214 -16.477,0.8871 -19.502,0.54434 -11.0811,-1.25558 -19.14154,-8.63168 -27.87101,-25.50481 -17.68564,-34.18447 -30.08111,-56.67228 -33.22022,-60.26799 -1.97518,-2.26248 -9.54804,-11.7636 -16.82858,-21.1136 -7.28054,-9.35 -13.67721,-17.15841 -14.21482,-17.35201 -0.5376,-0.19361 -0.24082,1.38139 0.65951,3.5 10.66657,25.09999 11.98831,30.67471 11.93819,50.35201 -0.039,15.30156 -1.45947,24.47218 -6.04098,39 -2.7606,8.75374 -8.66867,17.99839 -25.2437,39.5 -13.3586,17.32917 -16.77933,22.7113 -24.46952,38.5 -5.90382,12.12113 -18.53744,29.23698 -26.95079,36.51257 -4.84014,4.18559 -20.87904,12.1517 -44.25808,21.98184 -8.8,3.70012 -22.075,9.66059 -29.5,13.24547 -35.71568,17.244 -44.47236,20.78952 -69.5,28.14007 -3.85,1.13074 -9.75427,3.69362 -13.1206,5.6953 -8.00457,4.75965 -31.67424,23.69348 -47.20553,37.76062 -6.77937,6.14027 -16.45437,14.7032 -21.5,19.02872 -10.89948,9.34392 -37.54098,27.20678 -50.17387,33.64108 -4.95,2.52118 -11.025,5.88203 -13.5,7.46854 -2.475,1.58652 -10.23708,5.75101 -17.24906,9.25443 -13.3012,6.64572 -14.72348,7.80255 -31.25094,25.41843 -3.3,3.51732 -14.1,12.43525 -24,19.81761 -9.9,7.38236 -20.25,15.27538 -23,17.54004 -2.75,2.26467 -9.5,7.09205 -15,10.72751 -9.99963,6.60969 -21.35415,16.89241 -26.60096,24.08997 -2.82294,3.87251 -4.61161,8.71257 -6.90249,18.6778 -1.30766,5.68829 -4.22292,12.3505 -6.58423,15.04688 -0.74506,0.85079 -3.65777,5.80079 -6.47267,11 -6.16994,11.39606 -12.92076,20.55939 -23.78933,32.29086 -8.74331,9.43749 -12.55847,14.55444 -16.15121,21.66226 -1.25102,2.475 -6.54506,10.89051 -11.76454,18.70114 -12.86551,19.25243 -19.89788,24.9938 -42.57202,34.75667 -7.0606,3.0401 -14.69541,6.77528 -16.96624,8.30039 -4.95265,3.32624 -24.33278,24.52096 -29.48141,32.2418 -5.01776,7.52458 -8.2339,17.15512 -13.19111,39.5 -2.31834,10.45 -5.76384,24.11266 -7.65667,30.36147 -5.28323,17.4415 -6.59014,24.63967 -6.56136,36.13853 0.0191,7.64019 0.62323,12.6789 2.21806,18.5 5.19634,18.96653 5.34032,19.87991 5.35962,34 0.0224,16.36901 -2.54977,37.9636 -6.1342,51.5 -9.5553,36.0849 -11.15107,45.3389 -9.33054,54.1084 1.41265,6.8047 5.27528,15.0741 11.59334,24.82 7.06544,10.8988 8.47246,15.4051 9.35705,29.9686 0.59324,9.7668 1.25426,13.6157 2.93738,17.103 3.47886,7.208 9.23901,14.394 15.69353,19.5782 3.3,2.6506 9.15,7.5798 13,10.9539 9.31552,8.1641 13.95753,11.2083 27.01678,17.7175 12.19893,6.0804 19.21192,8.1885 23.85084,7.1697 1.70039,-0.3735 6.47579,-2.2319 10.612,-4.1297 4.13621,-1.8978 10.37887,-4.5365 13.87258,-5.8638 9.03217,-3.4312 27.67504,-12.8321 34.12694,-17.2089 3.01353,-2.0443 8.37634,-7.3169 11.91735,-11.7169 3.54102,-4.4 14.41248,-15.875 24.15881,-25.5 16.48008,-16.2749 18.33002,-18.4801 26.42598,-31.5 4.78796,-7.7 11.75048,-18.275 15.47227,-23.5 9.60191,-13.4801 17.80225,-26.3498 32.49616,-51 14.2875,-23.9684 23.44305,-37.68549 37.11412,-55.60531 5.07934,-6.65792 9.96395,-13.51463 10.85469,-15.23713 2.47858,-4.79305 14.91805,-18.70593 35.45771,-39.65756 10.24452,-10.45 21.13473,-22.375 24.20045,-26.5 3.06572,-4.125 9.89679,-13.35655 15.18016,-20.51455 9.92128,-13.44156 20.67009,-24.6828 29.06851,-30.40024 6.73308,-4.58371 18.33917,-9.78893 25.84301,-11.59034 9.62469,-2.31056 42.51946,-3.65954 80.33164,-3.29433 29.21659,0.28219 34.98482,0.5892 41,2.18223 3.85,1.01961 7.675,2.26151 8.5,2.75978 0.825,0.49827 3.92211,2.04072 6.88247,3.42767 2.96036,1.38695 12.63536,6.40152 21.5,11.14348 34.08611,18.23367 41.03362,21.11901 70.63592,29.33546 6.31362,1.75241 13.6566,4.23657 16.31773,5.52034 2.66113,1.28377 6.93665,2.64414 9.50115,3.02304 2.5645,0.3789 8.93773,2.25993 14.16273,4.18005 5.225,1.92013 11.525,4.23238 14,5.13834 6.02561,2.20564 8.88111,3.73248 31.29093,16.73124 10.56497,6.12819 21.90907,12.54437 25.20907,14.25818 11.3716,5.90565 22.0771,12.76778 24.9272,15.97798 1.4603,1.64481 2.084,4.34494 2.5745,11.14493 0.5446,7.55094 1.032,9.4051 3.0728,11.69113 1.334,1.49432 9.1755,9.95172 17.4255,18.79423 27.2351,29.19108 45.4203,49.13988 50.9902,55.93498 6.5602,8.0033 50.0528,64.5573 53.492,69.5564 1.3243,1.925 10.5511,13.4 20.5038,25.5 9.9527,12.1 20.834,25.375 24.1806,29.5 9.4465,11.6438 27.4256,31.0603 35.2364,38.0536 12.6436,11.32 24.0141,18.724 43.597,28.3885 10.45,5.1572 20.8,9.9285 23,10.6027 6.1457,1.8834 11.6798,4.8667 15.1606,8.1725 4.3596,4.1405 14.2794,6.8084 27.8394,7.4876 9.165,0.459 12.5014,0.1891 20,-1.6178 4.95,-1.1929 10.0187,-2.3855 11.2637,-2.6504 1.2451,-0.265 5.4187,0.2798 9.2748,1.2105 6.839,1.6507 7.078,1.6428 9.7363,-0.3225 6.5666,-4.8548 7.5654,-5.0212 34.2252,-5.7006 14.025,-0.3574 29.8301,-1.1757 35.1225,-1.8184 7.4394,-0.9035 12.7704,-0.8899 23.4969,0.06 7.6309,0.6756 14.3258,1.6841 14.8775,2.241 0.6769,0.6834 -1.5983,0.7494 -6.9969,0.2031 -8.9973,-0.9104 -18.0336,-0.8566 -61,0.3634 -25.4603,0.7229 -30.4822,1.1137 -33.1866,2.5823 -3.3692,1.8297 -4.8766,3.5149 -3.9622,4.4294 0.8889,0.8888 34.9153,3.3151 50.1488,3.5758 13.4742,0.2306 14.2629,0.1299 21,-2.681 9.9836,-4.1655 16.075,-4.3923 28.6476,-1.0665 9.26,2.4495 12.3574,2.7676 29.3524,3.0149 26.5971,0.3869 49.6169,4.4151 55.1988,9.659 1.3,1.2212 3.1302,4.3788 4.0671,7.0168 0.937,2.638 2.1604,4.775 2.7188,4.7488 1.9928,-0.093 14.9348,-12.9337 13.9671,-13.8574 -0.5235,-0.4997 -4.1962,-1.8641 -8.1615,-3.0321 -6.744,-1.9864 -9.224,-3.4625 -7.9529,-4.7336 0.7621,-0.7621 20.9709,6.0956 21.3545,7.2465 0.1743,0.5229 -3.96,4.762 -9.1875,9.4203 -5.2274,4.6582 -9.5044,9.2489 -9.5044,10.2015 0,2.6756 3.293,3.8499 12.6482,4.5101 l 8.5902,0.6062 -1.2002,-2.2426 c -1.9405,-3.6257 -0.2716,-3.6898 3.4006,-0.1306 l 3.4089,3.304 2.8261,-2.031 c 1.5544,-1.117 4.1762,-3.4608 5.8262,-5.2084 3.8591,-4.0873 6.5,-5.5836 6.5,-3.6827 0,0.7662 -5.85,6.6618 -13,13.1014 -7.15,6.4396 -13,12.3229 -13,13.0741 0,2.9369 16.7264,12.0422 20.4079,11.1094 1.1507,-0.2916 4.9259,-3.3937 8.3895,-6.8936 l 6.2974,-6.3634 -2.6655,-6.1462 c -2.7161,-6.2627 -2.7035,-9.2043 0.039,-9.2043 1.5634,0 1.9214,1.0173 1.555,4.4195 -0.1137,1.0557 0.8421,4.1587 2.124,6.8957 l 2.3308,4.9763 -7.2392,6.6218 c -3.9816,3.6419 -7.2392,7.1222 -7.2392,7.7338 0,0.6116 2.1375,2.8432 4.75,4.9591 7.5025,6.0763 14.7253,13.8929 25.6318,27.7392 13.4083,17.0222 13.2476,16.7276 15.0844,27.6546 0.8783,5.225 4.2643,18.05 7.5246,28.5 9.0164,28.9 11.8398,43.7477 12.9307,68 l 0.7197,16 6.7683,12 c 10.4983,18.6132 9.6568,18.0026 44.0905,31.9925 9.9,4.0222 19.7161,8.0498 21.8137,8.9503 5.8238,2.5002 28.1478,3.7746 44.4478,2.5374 7.4785,-0.5677 14.529,-1.2203 15.6679,-1.4503 1.1388,-0.2299 7.3825,-1.6276 13.8748,-3.1058 l 11.8041,-2.6878 15.6959,2.1933 c 15.3012,2.1382 26.9944,4.2284 34.3069,6.1324 3.1445,0.8188 3.5494,1.2632 3.1334,3.4391 -0.5692,2.9777 -2.7452,3.174 -11.7445,1.0596 -3.3,-0.7753 -13.9424,-2.588 -23.6498,-4.028 l -17.6498,-2.6184 -9.8502,2.4661 c -16.3721,4.099 -24.7477,5.0052 -46.3502,5.0149 -24.4065,0.011 -24.2305,0.05 -53,-11.7478 -13.6479,-5.5967 -20.5991,-7.992 -20.7966,-7.1661 -0.1631,0.6823 2.3119,5.4227 5.5,10.5343 5.1327,8.2293 6.4838,9.6769 11.7966,12.6388 7.524,4.1946 20.1787,9.149 26.3186,10.3037 2.5748,0.4843 13.2314,1.8758 23.6814,3.0922 18.6785,2.1743 23.5151,3.1371 23.4847,4.6748 -0.066,3.3499 -1.5367,3.3659 -25.9243,0.2824 -23.9348,-3.0262 -29.7972,-4.3948 -42.3933,-9.8966 -5.7338,-2.5045 -5.6671,-2.4963 -5.6671,-0.6964 0,1.7444 10.3739,21.236 12.6279,23.7267 3.1798,3.5137 37.352,19.9036 46.8721,22.4812 2.75,0.7446 8.5521,1.3591 12.8936,1.3656 7.8064,0.012 8.1024,-0.084 26.7982,-8.6542 17.1793,-7.8751 19.0479,-8.5227 20.4747,-7.0959 0.8636,0.8635 1.3036,2.0013 0.9779,2.5283 -1.2927,2.0917 -38.2491,17.9871 -43.3062,18.6265 -6.9384,0.8773 -18.3042,-0.9689 -26.8382,-4.3595 -15.6175,-6.2049 -38.3915,-18.1707 -41.8325,-21.9796 -1.8668,-2.0663 -7.1089,-11.1362 -11.6492,-20.1553 -10.3117,-20.484 -23.4155,-42.2641 -28.0183,-46.57 -3.7074,-3.4683 -6.1373,-3.9871 -10.6459,-2.2729 -3.6541,1.3893 -6.5847,0.559 -10.6617,-3.0207 -4.3378,-3.8087 -5.8502,-7.4171 -10.6884,-25.5011 -3.7235,-13.9178 -4.004,-15.9004 -4.004,-28.2997 0,-10.4541 -0.3575,-14.0244 -1.6558,-16.5337 -2.0865,-4.0328 -4.3168,-12.3097 -4.3323,-16.0776 -0.01,-1.5825 -1.421,-5.7396 -3.1433,-9.238 -2.706,-5.4968 -3.0381,-7.0077 -2.4448,-11.1228 0.3776,-2.619 1.054,-8.8119 1.5031,-13.7619 0.449,-4.95 1.5492,-10.9691 2.4448,-13.3757 0.8955,-2.4067 1.6283,-5.8649 1.6283,-7.6849 0,-6.2138 0.061,-6.1195 -20.8796,-32.294 -10.0084,-12.5099 -18.8961,-19.8055 -31.7705,-26.0791 -12.8351,-6.2545 -16.9644,-10.188 -28.3659,-27.0214 -9.9398,-14.6751 -18.8075,-24.5348 -23.2949,-25.9007 -8.363,-2.5456 -22.861,-3.3017 -51.1891,-2.6696 -15.95,0.3558 -37.1,0.6003 -47,0.5432 -29.1992,-0.1685 -68.2533,-2.9408 -78.6443,-5.5827 -7.6525,-1.9457 -12.1017,-1.8075 -20.3589,0.6322 -8.324,2.4595 -25.2921,2.7504 -35.2874,0.6051 -3.4598,-0.7426 -6.4845,-1.0363 -6.7216,-0.6526 -0.2371,0.3836 0.2785,4.46 1.1458,9.0585 2.4095,12.7751 1.4601,40.2622 -1.9965,57.8053 -2.9951,15.2007 -3.4136,27.6641 -1.1448,34.0946 2.4788,7.0256 9.7528,16.8042 23.0762,31.0218 44.2646,47.2355 58.4315,71.0961 58.4315,98.4131 0,13.0587 -4.4507,26.8436 -22.9518,71.0869 -15.8881,37.9947 -24.8392,55.3772 -33.9029,65.8376 -5.2062,6.0084 -6.6551,9.4345 -9.1187,21.5623 -3.8115,18.763 -3.7258,23.2229 0.8854,46.1001 2.2726,11.275 4.7743,21.9298 5.5592,23.6774 1.9192,4.2728 12.8495,15.7434 24.9039,26.1348 10.8776,9.3771 16.3724,16.5822 14.4304,18.9222 -0.98,1.1808 -6.0549,4.2695 -7.0058,4.2638 -0.1649,-10e-4 -1.5518,-1.9837 -3.0821,-4.4061 z m 328.6961,-244.6231 c 0.7844,-0.7969 0.5518,-1.4982 -0.8367,-2.5231 -1.0577,-0.7806 -1.9681,-2.4491 -2.0232,-3.7077 -0.1491,-3.4064 -5.4703,-11.9842 -7.0566,-11.3755 -2.1427,0.8222 -2.5746,-1.8198 -3.4918,-21.3586 -0.6676,-14.22 -1.1991,-18.7138 -2.2957,-19.4098 -1.0927,-0.6936 -1.2063,-1.6304 -0.4851,-4 1.2059,-3.9617 -2.6388,-23.4678 -7.8181,-39.6662 -2.0098,-6.2854 -4.6529,-14.7796 -5.8736,-18.8759 -3.3446,-11.223 -5.5191,-10.769 -6.0431,1.2619 -0.1722,3.9522 -0.636,9.5108 -1.0308,12.3523 -0.8731,6.2842 -0.1964,9.3025 2.9158,13.0065 1.8967,2.2575 2.457,4.2792 2.7805,10.0343 0.3034,5.3955 0.9539,7.9492 2.5878,10.1592 1.4561,1.9694 2.4082,5.1536 2.8602,9.5657 0.5579,5.4459 0.9617,6.5253 2.2871,6.1135 0.8853,-0.2749 2.2846,-0.067 3.1096,0.4619 1.2245,0.7852 1.1093,0.9647 -0.6276,0.9772 -3.6485,0.026 -4.798,2.6185 -4.6477,10.4807 0.1462,7.6413 5.675,30.8146 9.4855,39.7568 2.5222,5.9191 6.9101,9.0494 11.7035,8.3491 1.8775,-0.2743 3.9025,-0.9953 4.5,-1.6023 z m -95.0419,-220.4719 c 2.2377,-1.9763 3.6473,-4.005 3.3397,-4.8065 -0.6077,-1.5837 -14.5365,-3.2656 -15.8841,-1.918 -1.1163,1.1163 5.2975,10.2155 7.1726,10.1759 0.825,-0.017 3.2423,-1.5706 5.3718,-3.4514 z M 1602,1275.0558 c 0,-1.6283 -4.7915,-6.5941 -5.592,-5.7954 -0.4192,0.4183 0.5267,2.1058 2.102,3.75 3.1124,3.2487 3.49,3.47 3.49,2.0454 z m -96.4428,-12.1745 c 5.3613,-1.35 5.6747,-2.5596 0.8953,-3.4562 -5.9297,-1.1124 -15.4525,1.1124 -15.4525,3.6101 0,1.315 9.1058,1.2188 14.5572,-0.1539 z M 357.49791,1217.5428 c 28.91014,-8.6035 52.38387,-22.0383 73.17943,-41.8828 12.36455,-11.7992 14.0013,-15.2594 14.60362,-30.8737 0.40753,-10.5648 0.29331,-11.627 -1.16455,-10.8297 -2.5841,1.4133 -25.97307,25.8173 -33.4143,34.8645 -9.1252,11.0946 -21.10552,18.6154 -46.20211,29.004 -6.6,2.732 -17.4,7.5457 -24,10.697 -6.6,3.1513 -13.575,6.2808 -15.5,6.9544 -1.925,0.6736 -3.38076,1.6295 -3.23502,2.1241 1.22991,4.1744 21.62265,4.1414 35.73293,-0.058 z M 321.75,1208.3697 c 2.38606,-0.6394 3.15344,-3.3697 0.9471,-3.3697 -1.73909,0 -16.15246,-7.0097 -24.80925,-12.0655 -3.82257,-2.2325 -11.99861,-8.3382 -18.16899,-13.5683 C 258.59584,1161.4621 259,1161.7705 259,1163.5545 c 0,0.9161 1.36818,4.2325 3.04041,7.3699 8.66082,16.2494 27.35104,32.5713 41.95959,36.6426 4.86394,1.3556 14.1243,1.7744 17.75,0.8027 z M 583.06478,941.18968 C 599.89799,923.69441 617,904.01601 617,902.14219 c 0,-2.53043 -2.18976,-0.72318 -9.82385,8.10781 -4.39797,5.0875 -12.75027,13.8807 -18.56067,19.54045 C 576.29732,941.78923 562,957.5111 562,959.05783 c 0,1.8706 11.27537,-7.69371 21.06478,-17.86815 z M 1042,953.78615 c 0,-4.59794 -0.3706,-5.44836 -3.7931,-8.70409 -4.1525,-3.95024 -13.5554,-9.76411 -25.2069,-15.58574 -4.125,-2.06103 -8.6945,-4.59085 -10.1544,-5.62183 -5.06528,-3.57708 -5.75856,-2.22993 -3.72711,7.2424 1.77031,8.25463 7.39421,13.11493 23.38151,20.20683 7.15,3.17171 14.1194,6.38191 15.4875,7.13378 1.368,0.75186 2.8305,1.15495 3.25,0.89575 0.4194,-0.25921 0.7625,-2.7644 0.7625,-5.5671 z m -45,-12.83581 c 0,-0.57731 -0.62047,-2.26481 -1.37882,-3.75 -0.75835,-1.48519 -1.96524,-6.01781 -2.68198,-10.0725 -0.71675,-4.05469 -2.24528,-8.77969 -3.39675,-10.5 -2.37812,-3.55297 -12.70392,-9.10838 -24.47515,-13.16796 -12.06422,-4.16062 -18.27832,-6.48328 -22.5673,-8.43502 -7.23762,-3.29355 -15.63972,-5.28881 -16.88331,-4.0093 -0.82892,0.85285 -0.29824,1.83925 2.05928,3.82771 1.74678,1.47333 6.75746,6.87208 11.13483,11.99723 8.81829,10.3247 12.40093,13.14435 20.5981,16.2113 3.0542,1.14272 5.82012,2.50975 6.1465,3.03784 0.32637,0.52808 3.79094,2.63645 7.69904,4.68526 3.90809,2.0488 10.28711,5.38804 14.17559,7.42053 7.41542,3.87599 9.56997,4.49622 9.56997,2.75491 z M 303.01322,768.4933 c 2.72071,-1.37869 7.31825,-3.42904 10.21676,-4.55634 11.34835,-4.41366 22.33241,-11.47349 28.91172,-18.58256 3.96619,-4.28554 14.75985,-20.51887 21.43948,-32.24431 4.06167,-7.12987 8.72081,-13.40528 14.84891,-20 11.19452,-12.04696 19.73329,-23.49491 24.29856,-32.57717 1.94434,-3.8681 5.20031,-9.36324 7.23548,-12.21142 2.33407,-3.26646 4.3236,-7.69717 5.38839,-12 0.92844,-3.75182 2.35394,-8.9069 3.16778,-11.45571 3.13149,-9.80738 1.42622,-8.90331 -5.08332,2.69499 -2.65742,4.73482 -10.03037,15.04918 -16.38433,22.92079 C 356.8074,700.33943 346.79319,712.1955 332,727.49895 c -20.60067,21.31124 -28.89092,30.62719 -32.87895,36.94683 -4.74178,7.51407 -4.15432,8.12498 3.89217,4.04752 z M 456.25914,585.52336 c 4.53247,-3.01216 12.1117,-8.52466 16.84274,-12.25 4.73103,-3.72535 15.53103,-12.01559 24,-18.42276 11.09313,-8.39246 16.90423,-13.56468 20.78517,-18.5 7.70081,-9.79296 17.01086,-16.51156 38.61295,-27.86501 3.3,-1.73438 6.14397,-3.89525 6.31994,-4.80193 0.28496,-1.4683 -0.15229,-1.4342 -4,0.31196 -2.37597,1.07825 -5.24244,1.97034 -6.36994,1.98242 -1.1275,0.0121 -2.50757,0.47953 -3.06681,1.03877 C 548.21037,508.18963 524.94696,520 523.80963,520 c -1.27892,0 -26.69975,14.83185 -37.81263,22.06187 -11.83236,7.69811 -15.15799,10.84312 -20.5545,19.43813 -2.07196,3.3 -6.77574,10.275 -10.45285,15.5 -11.44597,16.2642 -11.34981,16.90978 1.26949,8.52336 z M 101.15136,419.41217 C 112.34311,413.58886 123.75,407.11805 126.5,405.03258 c 11.478,-8.70434 30.60235,-28.23326 28.76212,-29.37058 -1.02692,-0.63467 -12.6243,3.42614 -21.59923,7.56295 -8.81334,4.06233 -16.08393,9.68661 -24.92389,19.28027 -4.24905,4.61132 -9.610962,9.11167 -13.872392,11.64333 -6.674714,3.96538 -14.84669,11.99509 -14.860152,14.60145 -0.0036,0.6875 0.174155,1.25 0.394902,1.25 0.220746,0 9.558246,-4.76452 20.750002,-10.58783 z M 829,348.47779 c 15.33677,-7.03328 19.27012,-9.68577 26.25036,-17.70218 9.32731,-10.71187 14.64264,-18.70037 20.29337,-30.49927 6.38131,-13.32434 9.0654,-17.39779 27.88343,-42.31661 7.766,-10.28372 15.34705,-21.20365 16.84678,-24.2665 4.42439,-9.03577 7.77676,-24.50557 8.4322,-38.91104 0.9366,-20.58523 -1.23536,-30.23156 -11.87671,-52.74795 C 904.73864,116.45093 895.72748,105.93134 878.90694,97.76366 868.75399,92.83362 813.2918,72.086908 790.5,64.693324 762.70678,55.677295 732.5555,48.288819 709.5,44.844523 694.49187,42.602436 646,43.453086 646,45.958448 c 0,0.439592 7.0875,1.09474 15.75,1.455882 25.82902,1.076821 25.2937,0.951827 68.64579,16.028435 28.14851,9.789236 42.64147,13.873939 60.60421,17.080711 19.015,3.394627 34.63664,7.37933 53.28931,13.592822 17.51269,5.833742 25.92263,9.952922 33.97148,16.639172 5.61938,4.66807 19.52577,21.14971 22.32137,26.45495 3.95442,7.50432 6.37529,30.32477 6.40301,60.35808 0.0172,18.63087 -0.3069,20.07503 -9.29805,41.4315 -7.48125,17.77004 -14.73631,28.83108 -39.68262,60.5 -21.13259,26.82748 -21.93389,27.70304 -32.26585,35.25607 -5.84468,4.27267 -8.73856,7.23047 -11.29795,11.54751 -3.38088,5.70267 -4.03488,7.76891 -2.83788,8.96591 0.75444,0.75444 2.01623,0.26185 17.39718,-6.7917 z m 1025,967.88991 c -3.025,-0.7979 -14.95,-4.5644 -26.5,-8.37 -11.55,-3.8057 -29.325,-8.9823 -39.5,-11.5037 -24.0886,-5.969 -33.7954,-9.3473 -49,-17.0536 -14.0956,-7.1441 -21.5701,-12.3456 -26.7797,-18.6356 -6.8705,-8.2956 -11.7651,-13.0213 -16.974,-16.3886 -4.6451,-3.0027 -5.7074,-4.378 -9.1689,-11.8703 -3.7989,-8.2227 -8.0774,-25.8959 -8.0774,-33.3652 0,-1.7243 1.125,-6.1239 2.5,-9.7769 1.375,-3.6531 2.5,-8.1544 2.5,-10.0031 0,-3.0883 2.7783,-11.4311 6.857,-20.5903 2.1828,-4.9018 19.5364,-20.6992 26.4651,-24.0919 13.1415,-6.4347 58.8606,-16.6407 68.5968,-15.3131 2.4304,0.3315 6.8723,1.7258 9.8708,3.0986 6.7838,3.1057 9.3202,3.1178 17.3833,0.083 3.6761,-1.3837 10.0193,-2.7204 14.8691,-3.1334 4.7131,-0.4013 10.6717,-1.6396 13.4579,-2.7968 4.0533,-1.6834 7.0828,-2.0702 16,-2.0426 10.4192,0.032 11.6864,0.2728 24,4.5564 20.1045,6.9938 37.6926,14.1914 38.2598,15.657 0.2825,0.7302 -0.2245,2.0657 -1.1267,2.9679 -1.4217,1.4218 -2.0728,1.4667 -4.8867,0.3367 -1.7855,-0.717 -4.1043,-1.561 -5.1528,-1.8754 -3.2223,-0.9664 -0.7435,1.7827 3.0285,3.3588 3.7932,1.5849 4.6354,3.9038 1.1279,3.1057 -20.6514,-4.699 -27.3032,-6.2955 -38.6333,-9.2724 -12.638,-3.3205 -14.3641,-3.5266 -31,-3.7014 -9.6892,-0.1018 -23.4749,0.1988 -30.6349,0.6681 -12.7079,0.8328 -13.137,0.7938 -18,-1.6357 -2.74,-1.3688 -6.5301,-2.7852 -8.4225,-3.1474 -7.8908,-1.5105 -53.3089,8.5064 -65.8392,14.5207 -5.9989,2.8793 -22.332,18.1016 -24.4632,22.7994 -2.1068,4.644 -4.1941,22.5229 -3.4599,29.6364 0.2917,2.8262 1.737,8.1547 3.2119,11.8411 2.1186,5.2958 2.8507,9.2877 3.4877,19.0179 0.4434,6.7733 1.266,13.156 1.8279,14.1836 0.5619,1.0277 3.118,3.8935 5.6801,6.3685 2.5622,2.475 6.9271,7.3333 9.6998,10.7961 5.6912,7.1079 12.4706,12.0505 26.2136,19.1113 13.2182,6.7912 23.7857,10.4236 48.582,16.6992 11.825,2.9928 30.95,8.6544 42.5,12.5815 18.9165,6.4317 21.9457,7.1841 30.5319,7.5835 7.7554,0.3608 10.8036,0.051 16.3553,-1.6641 8.0356,-2.4819 14.2154,-2.5494 25.0191,-0.2732 8.6757,1.8278 11.2926,3.8954 8.4846,6.7034 -1.4337,1.4336 -2.1512,1.426 -7.9831,-0.085 -8.7384,-2.2647 -15.8523,-2.9078 -17.2047,-1.5554 -0.6067,0.6067 -1.8617,1.1031 -2.7888,1.1031 -0.9271,0 -2.9746,0.6722 -4.55,1.4938 -3.7079,1.9338 -18.8283,1.8615 -26.3643,-0.1261 z m -162.7726,-96.2014 c -0.2044,-6.25 -0.9149,-9.86 -2.8416,-14.4376 -1.4129,-3.357 -2.8189,-8.5247 -3.1243,-11.4836 -0.4962,-4.8084 -0.7163,-5.2188 -2.0719,-3.8633 -2.4386,2.4387 -2.5601,11.1754 -0.3162,22.7493 2.5406,13.1042 3.7789,16.0621 6.558,15.6647 1.928,-0.2757 2.0501,-0.8622 1.796,-8.6295 z m 209.5429,-84.3555 c -0.8415,-2.5245 -5.7949,-4.9745 -19.7703,-9.7783 -17.5591,-6.0356 -25.6161,-7.0855 -34.737,-4.5263 -3.4259,0.9613 -6.7046,2.3209 -7.2859,3.0215 -1.1527,1.3888 1.2808,1.8316 16.5229,3.0065 4.4,0.3391 14.525,2.3461 22.5,4.4598 21.0916,5.5903 23.4957,5.9932 22.7703,3.8168 z" style="fill:#268bd2;fill-opacity:0.16546763;display:inline" id="path6307"/>
    </g>
    <g inkscape:groupmode="layer" id="layer42" inkscape:label="Ponts" style="display:inline">
        <g id="g6868" transform="matrix(0.14554544,0.20032611,-0.20032611,0.14554544,1259.4245,743.23903)">
            <path id="use6874" style="fill:#feecce;fill-opacity:1;stroke:none" d="m 1303.4151,1178.1319 13.1842,-14.6426 0,-65.3584 -13.1842,-14.6425 44.8887,-0.542 -13.1842,14.6425 0,65.3584 13.1842,14.6426 z" inkscape:connector-curvature="0" sodipodi:nodetypes="ccccccccc"/>
            <path inkscape:connector-curvature="0" id="path6860" d="m 1303.4151,1178.1319 13.1842,-14.6426 0,-65.3584 -13.1842,-14.6425" style="fill:none;stroke:#073642;stroke-width:4.03849983px;stroke-linecap:round;stroke-linejoin:miter;stroke-opacity:1"/>
            <use height="1770" width="1927" transform="matrix(-1,0,0,1,2651.7189,-0.54200268)" id="use6866" xlink:href="#path6860" y="0" x="0"/>
        </g>
        <use x="0" y="0" xlink:href="#g6868" id="use6882" transform="matrix(0.98511214,0.17191296,-0.17191296,0.98511214,231.32221,-178.63694)" width="1927" height="1770"/>
        <use style="display:inline" x="0" y="0" xlink:href="#g6868" id="use6882-5" transform="matrix(0.99486374,-0.10122322,0.10122322,0.99486374,-151.74733,84.891708)" width="1927" height="1770"/>
        <use style="display:inline" x="0" y="0" xlink:href="#g6868" id="use6882-5-9" transform="matrix(0.86088188,-0.22997789,-0.11999,0.77509649,254.13206,478.63877)" width="1927" height="1770"/>
        <use style="display:inline" x="0" y="0" xlink:href="#g6868" id="use6882-5-7" transform="matrix(0.99486374,-0.10122322,0.10122322,0.99486374,-190.00868,36.37852)" width="1927" height="1770"/>
        <use style="display:inline" x="0" y="0" xlink:href="#g6868" id="use6882-5-7-7" transform="matrix(0.99486374,-0.10122322,0.10122322,0.99486374,-223.69331,-8.1071603)" width="1927" height="1770"/>
        <use style="display:inline" x="0" y="0" xlink:href="#g6868" id="use6882-5-9-6" transform="matrix(0.86088188,-0.22997789,-0.11999,0.77509649,191.3395,399.00392)" width="1927" height="1770"/>
        <use style="display:inline" x="0" y="0" xlink:href="#g6868" id="use6882-5-7-7-7" transform="matrix(0.99486374,-0.10122322,0.10122322,0.99486374,-244.92928,-29.70926)" width="1927" height="1770"/>
        <use style="display:inline" x="0" y="0" xlink:href="#g6868" id="use6882-5-7-7-7-3" transform="matrix(1.2580456,0.08623217,-0.41645247,1.0688531,-0.22695856,-396.40228)" width="1927" height="1770"/>
        <use style="display:inline" x="0" y="0" xlink:href="#g6868" id="use6882-5-9-6-6" transform="matrix(0.51146305,-0.33160065,0.08578244,0.52963136,301.36975,742.6849)" width="1927" height="1770"/>
        <use style="display:inline" x="0" y="0" xlink:href="#g6868" id="use6882-5-9-6-6-5" transform="matrix(0.45753209,-0.29663518,0.07673716,0.47378465,388.37539,748.60975)" width="1927" height="1770"/>
        <use style="display:inline" x="0" y="0" xlink:href="#g6868" id="use6882-5-9-6-6-5-6" transform="matrix(0.51146305,-0.33160065,0.08578244,0.52963136,294.37653,714.35652)" width="1927" height="1770"/>
        <use style="display:inline" x="0" y="0" xlink:href="#g6868" id="use6882-5-9-6-6-5-6-3" transform="matrix(0.43703446,0.06955687,-0.21100759,0.32742084,710.08676,463.64541)" width="1927" height="1770"/>
        <use style="display:inline" x="0" y="0" xlink:href="#g6868" id="use6882-5-9-6-6-5-6-9" transform="matrix(0.30525795,-0.30479853,0.13730962,0.35400363,471.95105,905.03911)" width="1927" height="1770"/>
        <use style="display:inline" x="0" y="0" xlink:href="#g6868" id="use6882-5-9-6-6-5-6-9-4" transform="matrix(0.22370621,-0.36883614,0.21781782,0.31101109,471.07366,1004.9182)" width="1927" height="1770" inkscape:transform-center-x="0.62002438" inkscape:transform-center-y="4.3611164"/>
        <use style="display:inline" x="0" y="0" xlink:href="#g6868" id="use6882-5-9-6-6-5-6-9-4-8" transform="matrix(0.33544584,-0.27122067,0.09955397,0.36641712,458.32836,843.06155)" width="1927" height="1770"/>
        <use style="display:inline" x="0" y="0" xlink:href="#g6868" id="use6882-5-9-6-6-5-6-9-4-8-1" transform="matrix(0.33544584,-0.27122067,0.09955397,0.36641712,447.89345,837.75256)" width="1927" height="1770" inkscape:transform-center-y="3.2952355"/>
        <use style="display:inline" x="0" y="0" xlink:href="#g6868" id="use6882-5-9-6-6-5-6-9-4-8-1-2" transform="matrix(0.33544584,-0.27122067,0.09955397,0.36641712,458.32836,810.47534)" width="1927" height="1770" inkscape:transform-center-y="3.2952355"/>
        <use style="display:inline" x="0" y="0" xlink:href="#g6868" id="use6882-5-9-6-6-5-6-9-4-8-1-2-9" transform="matrix(0.33544584,-0.27122067,0.09955397,0.36641712,446.97811,804.80021)" width="1927" height="1770" inkscape:transform-center-y="3.2952355"/>
        <use style="display:inline" x="0" y="0" xlink:href="#g6868" id="use6882-5-9-6-6-5-6-9-4-8-1-2-3" transform="matrix(0.33544584,-0.27122067,0.09955397,0.36641712,434.34637,829.69754)" width="1927" height="1770" inkscape:transform-center-y="3.2952355"/>
        <use style="display:inline" x="0" y="0" xlink:href="#g6868" id="use6882-5-7-7-7-9" transform="matrix(1.192873,-0.52635878,0.52635878,1.192873,-1140.0504,145.0964)" width="1927" height="1770"/>
        <use style="display:inline" x="0" y="0" xlink:href="#g6868" id="use6882-5-7-7-0" transform="matrix(0.61507188,-0.44331772,0.44331772,0.61507188,-356.39852,708.55314)" width="1927" height="1770"/>
        <use style="display:inline" x="0" y="0" xlink:href="#g6868" id="use6882-5-7-7-0-8" transform="matrix(0.61507188,-0.44331772,0.44331772,0.61507188,-384.68261,697.8302)" width="1927" height="1770"/>
        <use style="display:inline" x="0" y="0" xlink:href="#g6868" id="use6882-5-7-7-0-85" transform="matrix(0.69380202,-0.30574953,0.30574953,0.69380202,-338.8178,429.29567)" width="1927" height="1770"/>
        <use style="display:inline" x="0" y="0" xlink:href="#g6868" id="use6882-5-7-7-0-8-0" transform="matrix(0.65804177,-0.37659666,0.37659666,0.65804177,-409.59756,541.81619)" width="1927" height="1770"/>
        <use style="display:inline" x="0" y="0" xlink:href="#g6868" id="use6882-5-7-7-0-8-0-9" transform="matrix(0.65804177,-0.37659666,0.37659666,0.65804177,-442.5499,527.53683)" width="1927" height="1770"/>
        <use style="display:inline" x="0" y="0" xlink:href="#g6868" id="use6882-5-7-7-0-8-0-9-6" transform="matrix(0.44797541,-0.61168787,0.61168787,0.44797541,-498.40749,1059.1172)" width="1927" height="1770"/>
        <use style="display:inline" x="0" y="0" xlink:href="#g6868" id="use6882-5-7-7-0-8-0-9-6-3" transform="matrix(0.44797541,-0.61168787,0.61168787,0.44797541,-517.99583,1060.0326)" width="1927" height="1770"/>
        <use style="display:inline" x="0" y="0" xlink:href="#g6868" id="use6882-5-7-7-0-8-0-9-6-8" transform="matrix(0.44797541,-0.61168787,0.61168787,0.44797541,-572.32494,1059.8144)" width="1927" height="1770"/>
        <use style="display:inline" x="0" y="0" xlink:href="#g6868" id="use6882-5-7-7-0-8-0-9-6-5" transform="matrix(0.16045003,-0.74101269,0.74101269,0.16045003,-401.28921,1565.8391)" width="1927" height="1770"/>
        <use style="display:inline" x="0" y="0" xlink:href="#g6868" id="use6882-5-7-7-0-8-0-9-6-5-6" transform="matrix(-0.15481862,-0.74220968,0.74220968,-0.15481862,-46.588755,1963.784)" width="1927" height="1770"/>
        <use style="display:inline" x="0" y="0" xlink:href="#g6868" id="use6882-5-7-7-0-8-0-9-6-5-6-1" transform="matrix(0.00370181,-0.97499654,0.97499654,0.00370181,-540.98265,2103.0651)" width="1927" height="1770"/>
        <use style="display:inline" x="0" y="0" xlink:href="#g6868" id="use6882-5-7-7-0-8-0-9-6-5-6-15" transform="matrix(-0.19921052,-0.95502706,0.95502706,-0.19921052,-316.16073,2367.044)" width="1927" height="1770"/>
        <use style="display:inline" x="0" y="0" xlink:href="#g6868" id="use6882-5-7-7-0-8-0-9-6-5-6-15-9" transform="matrix(-0.22760272,-0.70964562,0.70964562,-0.22760272,-21.227537,2134.1255)" width="1927" height="1770"/>
        <use style="display:inline" x="0" y="0" xlink:href="#g6868" id="use6882-5-7-7-0-8-0-9-6-5-6-15-9-8" transform="matrix(-0.22760272,-0.70964562,0.70964562,-0.22760272,-66.338109,2203.6859)" width="1927" height="1770"/>
        <use style="display:inline" x="0" y="0" xlink:href="#g6868" id="use6882-5-7-7-0-8-0-9-6-5-6-15-9-8-4" transform="matrix(-0.81399119,-0.91096057,0.91096057,-0.81399119,509.29705,3012.6821)" width="1927" height="1770" inkscape:transform-center-x="-9.1428598" inkscape:transform-center-y="2.8275521"/>
        <use style="display:inline" x="0" y="0" xlink:href="#g6868" id="use6882-5-7-7-0-8-0-9-6-5-6-15-9-8-8" transform="matrix(-0.58934459,-0.5347138,0.5347138,-0.58934459,553.9245,2454.8847)" width="1927" height="1770"/>
        <use style="display:inline" x="0" y="0" xlink:href="#g6868" id="use6882-5-7-7-0-8-0-9-6-5-6-15-9-8-8-1" transform="matrix(-0.55570056,-1.4499836,1.4499836,-0.55570056,-585.7331,3582.3028)" width="1927" height="1770"/>
        <use style="display:inline" x="0" y="0" xlink:href="#g6868" id="use6882-5-7-7-0-8-0-9-6-5-6-15-9-8-8-1-0" transform="matrix(0.40270778,-1.499694,1.499694,0.40270778,-1870.9763,2563.0085)" width="1927" height="1770"/>
        <use style="display:inline" x="0" y="0" xlink:href="#g6868" id="use6882-5-7-7-0-8-0-9-6-5-6-15-3" transform="matrix(0.95794632,0.18466284,-0.18466284,0.95794632,-707.15608,-203.31246)" width="1927" height="1770"/>
        <use style="display:inline" x="0" y="0" xlink:href="#g6868" id="use6882-5-7-7-0-8-0-9-6-5-6-15-3-0" transform="matrix(0.68681119,0.69285778,-0.69285778,0.68681119,203.91079,-623.1318)" width="1927" height="1770"/>
        <use style="display:inline" x="0" y="0" xlink:href="#g6868" id="use6882-5-7-7-0-8-0-9-6-5-6-15-3-0-4" transform="matrix(0.95763916,0.18624919,-0.18624919,0.95763916,-713.62022,-377.56483)" width="1927" height="1770"/>
        <use style="display:inline" x="0" y="0" xlink:href="#g6868" id="use6882-5-7-7-0-8-0-9-6-5-6-15-3-0-4-4" transform="matrix(0.48824656,0.84461637,-0.84461637,0.48824656,654.71939,-801.52119)" width="1927" height="1770"/>
        <use style="display:inline" x="0" y="0" xlink:href="#g6868" id="use6882-5-7-7-0-8-0-9-6-5-6-15-3-0-4-4-4" transform="matrix(0.16779162,1.3280361,-1.3280361,0.16779162,1705.0705,-1109.4085)" width="1927" height="1770"/>
        <use style="display:inline" x="0" y="0" xlink:href="#g6868" id="use6882-5-7-7-0-8-0-9-6-5-6-15-3-0-4-4-47" transform="matrix(0.48824656,0.84461637,-0.84461637,0.48824656,804.71622,-975.56329)" width="1927" height="1770"/>
        <use style="display:inline" x="0" y="0" xlink:href="#g6868" id="use6882-5-7-7-0-8-0-9-6-5-6-15-3-0-4-4-47-6" transform="matrix(-0.10612672,1.5000243,-1.5000243,-0.10612672,2367.1544,-1156.495)" width="1927" height="1770"/>
        <use style="display:inline" x="0" y="0" xlink:href="#g6868" id="use6882-5-7-7-0-8-0-9-6-5-6-15-3-0-4-4-47-6-3" transform="matrix(-0.10612672,1.5000243,-1.5000243,-0.10612672,2434.7822,-1200.6924)" width="1927" height="1770"/>
        <use style="display:inline" x="0" y="0" xlink:href="#g6868" id="use6882-5-7-7-0-8-0-9-6-5-6-15-3-0-4-4-47-6-3-1" transform="matrix(0.28111185,1.2306227,-1.2306227,0.28111185,1698.4485,-1356.9081)" width="1927" height="1770"/>
        <use style="display:inline" x="0" y="0" xlink:href="#g6868" id="use6882-5-7-7-0-8-0-9-6-5-6-15-3-0-4-4-47-6-3-1-7" transform="matrix(-0.02527695,1.2620686,-1.2620686,-0.02527695,2120.5732,-1042.7762)" width="1927" height="1770"/>
        <use style="display:inline" x="0" y="0" xlink:href="#g6868" id="use6882-5-7-7-0-8-0-9-6-5-6-15-3-0-4-4-47-6-3-1-7-5" transform="matrix(-0.43681518,1.1843347,-1.1843347,-0.43681518,2595.4762,-513.82205)" width="1927" height="1770"/>
        <use style="display:inline" x="0" y="0" xlink:href="#g6868" id="use6882-5-7-7-0-8-0-9-6-5-6-15-3-0-4-4-47-6-3-1-7-5-9" transform="matrix(-0.29794152,1.2266569,-1.2266569,-0.29794152,2541.2992,-761.86384)" width="1927" height="1770"/>
        <use style="display:inline" x="0" y="0" xlink:href="#g6868" id="use6882-5-7-7-0-8-0-9-6-5-6-15-3-0-4-4-47-6-3-1-7-5-9-6" transform="matrix(-0.29794152,1.2266569,-1.2266569,-0.29794152,2578.6268,-778.5811)" width="1927" height="1770"/>
        <use style="display:inline" x="0" y="0" xlink:href="#g6868" id="use6882-5-7-7-0-8-0-9-6-5-6-15-3-0-4-4-47-6-3-1-7-5-9-6-2" transform="matrix(0.25936068,1.4561919,-1.4561919,0.25936068,2225.1932,-1750.3162)" width="1927" height="1770"/>
        <use style="display:inline" x="0" y="0" xlink:href="#g6868" id="use6882-1" transform="matrix(0.91572362,-0.40180872,0.40180872,0.91572362,-316.1352,645.29903)" width="1927" height="1770"/>
        <use style="display:inline" x="0" y="0" xlink:href="#g6868" id="use6882-1-7" transform="matrix(0.91572362,-0.40180872,0.40180872,0.91572362,-306.7433,650.80463)" width="1927" height="1770"/>
        <use style="display:inline" x="0" y="0" xlink:href="#g6868" id="use6882-1-7-8" transform="matrix(0.22321731,-0.9747687,0.9747687,0.22321731,-42.324111,2193.3148)" width="1927" height="1770"/>
        <use style="display:inline" x="0" y="0" xlink:href="#g6868" id="use6882-1-7-8-5" transform="matrix(0.58126263,-0.81371601,0.81371601,0.58126263,-267.021,1573.4839)" width="1927" height="1770"/>
        <use style="display:inline" x="0" y="0" xlink:href="#g6868" id="use6882-1-7-8-5-7" transform="matrix(0.81371601,0.58126263,-0.58126263,0.81371601,1023.9755,-386.0896)" width="1927" height="1770"/>
        <use style="display:inline" x="0" y="0" xlink:href="#g6868" id="use6882-1-7-8-5-7-4" transform="matrix(0.99605006,-0.08879341,0.08879341,0.99605006,67.649271,374.58262)" width="1927" height="1770"/>
        <use style="display:inline" x="0" y="0" xlink:href="#g6868" id="use6882-1-7-8-5-7-4-1" transform="matrix(1.0423288,0.43658465,-0.43658465,1.0423288,597.40195,-133.2013)" width="1927" height="1770"/>
        <use style="display:inline" x="0" y="0" xlink:href="#g6868" id="use6882-1-7-8-5-7-4-1-8" transform="matrix(1.1039893,0.24137748,-0.24137748,1.1039893,284.20369,116.5015)" width="1927" height="1770"/>
        <use style="display:inline" x="0" y="0" xlink:href="#g6868" id="use6882-1-7-8-5-7-4-1-8-5" transform="matrix(0.93859123,-0.09313568,0.09313568,0.93859123,167.48509,840.76638)" width="1927" height="1770"/>
    </g>
    
    
    
    
    
    
    
    
    
    
    
    
    
    
    
    
    
    
    
    
    
    
    
    
    
    
    
    
    
    
    
    
    
    
    
    
    
    
    
</svg>
